# xmcd
#
# Track frame offsets:
#	150
#	11271
#	28078
#	42371
#	55393
#	69802
#	82360
#	95947
#	108380
#	118449
#	133302
#	145479
#
# Disc length: 2106 seconds
#
# Revision: 1
# Processed by: cddbd v1.5.2PL0 Copyright (c) Steve Scherf et al.
# Submitted via: audiograbber 1.83.01
#
DISCID=b808380c
DTITLE=Glen Campbell - Try a Little Kindness
DYEAR=1970
DGENRE=Country
TTITLE0=Try a Little Kindness
TTITLE1=Both Sides Now
TTITLE2=For My Woman's Love
TTITLE3=Country Girl
TTITLE4=All the Way
TTITLE5=Where Do You Go
TTITLE6=Honey Come Back
TTITLE7=Folk Singer
TTITLE8=Love Is Not a Game
TTITLE9=Once More with Feeling
TTITLE10=And the World Keeps Spinning
TTITLE11=Home Again
EXTD=
EXTT0=
EXTT1=
EXTT2=
EXTT3=
EXTT4=
EXTT5=
EXTT6=
EXTT7=
EXTT8=
EXTT9=
EXTT10=
EXTT11=
PLAYORDER=
